<svg xmlns="http://www.w3.org/2000/svg" enable-background="new 0 0 1080 1080" viewBox="0 0 1080 1080" id="business-agreement"><path fill="#ffbe55" d="M820.78 615.83c-4.68 0-9.39-.27-14.02-.81a7.862 7.862 0 01-6.94-8.26c.61-10.81-5.66-20.87-15.6-25.03-9.47-3.97-21.82-1.19-28.75 6.47-2.8 3.09-7.53 3.46-10.76.85-7.14-5.75-13.62-12.3-19.26-19.48-2.53-3.21-2.15-7.89.86-10.65 7.89-7.23 10.48-18.69 6.45-28.52-3.99-9.71-13.54-16.06-23.71-15.8-3.95 0-8.63-2.86-9.09-6.96-1.03-9.24-1.02-18.56.05-27.68.51-4.23 3.87-7.08 8.15-6.94 11.27 0 21.15-6.12 25.13-15.59 4.17-9.94 1.58-21.5-6.45-28.77-3.07-2.8-3.44-7.52-.84-10.75 5.75-7.18 12.38-13.73 19.69-19.47 3.23-2.52 7.91-2.12 10.67.9 6.87 7.55 19.14 10.35 28.55 6.5 9.82-4.02 16.16-13.91 15.79-24.61-.14-4.09 2.94-7.64 7-8.09a121.7 121.7 0 0127.38.07c4.14.48 7.19 4.11 6.94 8.26-.61 10.8 5.65 20.86 15.58 25.04 9.49 3.96 21.86 1.18 28.76-6.46 2.79-3.09 7.51-3.47 10.75-.87 7.1 5.68 13.58 12.24 19.29 19.48 2.54 3.22 2.16 7.9-.86 10.66-7.88 7.23-10.47 18.69... 3.66 3.65 8.01 3.83 8.36 11.83.35 8-1.74 14.78-1.74 14.78s-37.39-57.74-38.96-59.65z"></path><path fill="#2a94f4" d="M122.47 916.46h-1.74s-.52-11.82-5.22-17.56c-3.03-3.7-15.89-7.91-28.61-12.95-7-2.78-13.96-5.8-19.21-9.14-14.78-9.39-28.87-39.65-30.08-45.04-.43-1.88-.62-3.02-.61-3.8v-.02c.03-1.45.75-1.67 1.99-3.13.6-.71 2.4-.46 4.6.21 6.38 1.94 11.75 6.31 15.09 12.08 3.08 5.34 8.01 12.01 14.05 13.62 10.43 2.79 9.57 4.52 13.42 15.13 3.84 10.61 13.54 12.34 25.71 24.86 12.17 12.52 10.61 25.74 10.61 25.74z"></path><path fill="#41aaf7" d="M86.9 885.95c-7-2.78-13.96-5.8-19.21-9.14-14.78-9.39-28.87-39.65-30.08-45.04-.43-1.88-.62-3.02-.61-3.8.04.36.73 5.14 8.43 8.33 7.99 3.3 9.56 3.3 10.6 8.35 1.04 5.04 1.92 10.43 6.09 11.48 4.17 1.04 6.78-3.65 10.08 4 3.31 7.65 4.88 10.26 7.92 11.3 3.04 1.04 5.34-.52 6.02 5.39.41 3.6.64 7.03.76 9.13z"></path><path fill="#cce9ff" d="M123.25 966.93c-14.09 0-20.04-11.25-22.38-23.19 13.81-5.24 31.21-13.63 45.64-26.28.86 8.48 3.63 49.47-23.26 49.47z"></path></svg>



