<?xml version="1.0" encoding="utf-8"?>
<!-- Uploaded to: SVG Repo, www.svgrepo.com, Generator: SVG Repo Mixer Tools -->
<svg width="800px" height="800px" viewBox="0 -129 1282 1282" class="icon"  version="1.1" xmlns="http://www.w3.org/2000/svg"><path d="M346.975207 294.505785l42.314049 88.859504a26.234711 26.234711 0 0 1-12.694215 35.543802L368.978512 423.140496q-132.019835 18.618182-138.790082 84.628099c0 32.158678 161.639669 162.48595 169.256198 229.342149a234.419835 234.419835 0 0 1 0 102.4q-46.545455 121.864463-274.195041 160.793388a26.234711 26.234711 0 0 1-25.38843-10.155372l-7.616529-10.155372-52.469421-79.550413-9.309091-11.847934a26.234711 26.234711 0 0 1 5.077686-37.236363h8.46281q169.256198-49.930579 161.639669-65.163637c-5.923967-28.773554-236.112397-190.413223-169.256198-338.512396a365.593388 365.593388 0 0 1 286.889256-169.256199 26.234711 26.234711 0 0 1 23.695868 16.079339zM1227.107438 454.452893l19.464463 41.467768a26.234711 26.234711 0 0 1-12.694215 35.543802h-5.923967q-76.165289 14.386777-80.396694 55.854545c0 21.157025 105.785124 106.631405 110.016529 149.791736a153.17686 153.17686 0 0 1 0 66.856198q-29.619835 78.704132-174.333885 104.938843a26.234711 26.234711 0 0 1-25.388429-10.155372l-33.85124-51.62314a24.542149 24.542149 0 0 1 5.077686-33.85124h7.616529q99.014876-30.466116 96.476033-39.775207c0-18.618182-154.869421-125.249587-112.555372-220.033057a236.112397 236.112397 0 0 1 181.104132-109.170248 26.234711 26.234711 0 0 1 25.38843 10.155372z" fill="#5D9CEC" /><path d="M484.919008 366.439669m-84.628099 0a84.628099 84.628099 0 1 0 169.256198 0 84.628099 84.628099 0 1 0-169.256198 0Z" fill="#5D9CEC" /><path d="M406.214876 445.143802l157.408264 0 0 472.224793-157.408264 0 0-472.224793Z" fill="#5D9CEC" /><path d="M652.482645 423.140496H677.024793a26.234711 26.234711 0 0 1 24.542149 16.92562l84.628099 204.8a6.770248 6.770248 0 0 0 8.46281 0l95.629752-192.952066a26.234711 26.234711 0 0 1 23.695868-14.386777h6.770248a26.234711 26.234711 0 0 1 26.234711 21.157025l98.168595 503.53719a26.234711 26.234711 0 0 1-21.157025 31.312396h-103.246281a26.234711 26.234711 0 0 1-26.234711-22.003305l-17.771901-101.553719a6.770248 6.770248 0 0 0-12.694214 0l-41.467769 101.553719a26.234711 26.234711 0 0 1-24.542149 16.079338h-17.771901a26.234711 26.234711 0 0 1-24.542148-16.925619l-37.236364-99.014877a6.770248 6.770248 0 0 0-12.694215 0l-18.618182 100.707439a26.234711 26.234711 0 0 1-26.23471 22.003305H564.469421a26.234711 26.234711 0 0 1-26.23471-30.466115l84.628099-517.923967A26.234711 26.234711 0 0 1 652.482645 423.140496z" fill="#5D9CEC" /><path d="M873.361983 222.571901L1030.770248 0l166.717355 222.571901-166.717355 221.72562-157.408265-221.72562z" fill="#9AD05F" /></svg>